<svg width="130" height="130" viewBox="0 0 130 130" fill="none" xmlns="http://www.w3.org/2000/svg">
<g clip-path="url(#clip0_8_46)">
<path d="M64.961 24.2682L44.7941 94.187M64.961 24.2682L84.2234 94.187M64.961 24.2682V0.396057M64.961 24.2682V63.8331M64.961 24.2682L42.8923 60.5237M64.961 24.2682L86.1647 61.4252M64.961 129.178V63.8331M33.8924 0.396057V34.3999M33.8924 66.5597H94.1028V60.5237M33.8924 66.5597L0.173096 72.2339L33.8924 60.5237M33.8924 66.5597V60.5237M94.1028 0.396057V34.3999M0.173096 129.178L42.8923 60.5237M128.73 129.178L86.1647 61.4252M33.8924 129.178L44.7941 94.187M94.1028 129.178L84.2234 94.187M44.7941 94.187H84.2234M33.8924 60.5237L64.961 63.8331M33.8924 60.5237V34.3999M94.1028 60.5237L128.73 72.2339L95.3815 66.5597M94.1028 60.5237V34.3999M94.1028 60.5237L86.1647 61.4252M64.961 63.8331L86.1647 61.4252M33.8924 34.3999L42.8923 60.5237M94.1028 34.3999L86.1647 61.4252" stroke="white" stroke-width="1.33"/>
</g>
<rect x="0.5" y="0.5" width="129" height="129" stroke="white"/>
<defs>
<clipPath id="clip0_8_46">
<rect width="130" height="130" fill="white"/>
</clipPath>
</defs>
</svg>
