<svg width="130" height="130" viewBox="0 0 130 130" fill="none" xmlns="http://www.w3.org/2000/svg">
<g clip-path="url(#clip0_8_81)">
<path d="M64.961 24.2682V0.396057M64.961 24.2682V63.8331M64.961 24.2682L42.8923 60.5237M64.961 24.2682L86.1647 61.4252M64.961 24.2682L54.5988 56.4767M64.961 24.2682L75.6914 56.4767M64.961 129.178V63.8331M33.8924 66.5597H94.1028V60.5237M33.8924 66.5597L0.173096 72.2339L33.8924 60.5237M33.8924 66.5597V60.5237M0.173096 129.178L42.8923 60.5237M128.73 129.178L86.1647 61.4252M33.8924 60.5237L64.961 63.8331M33.8924 60.5237V34.3999L42.8923 60.5237M94.1028 60.5237L128.73 72.2339L95.3815 66.5597M94.1028 60.5237V34.3999L86.1647 61.4252M94.1028 60.5237L86.1647 61.4252M64.961 63.8331L86.1647 61.4252M30 129.178L49.4267 72.5533M99.5 129.178L81.0474 72.5533M49.4267 72.5533H81.0474M49.4267 72.5533L54.5988 56.4767M81.0474 72.5533L75.6914 56.4767M54.5988 56.4767H75.6914" stroke="white" stroke-width="1.33"/>
<circle cx="19.1162" cy="79.4314" r="2.215" stroke="white" stroke-width="1.33"/>
<circle cx="2.88" cy="2.88" r="2.215" transform="matrix(-1 0 0 1 112.321 76.5515)" stroke="white" stroke-width="1.33"/>
<circle cx="37.9126" cy="78.7742" r="2.215" stroke="white" stroke-width="1.33"/>
<circle cx="2.88" cy="2.88" r="2.215" transform="matrix(-1 0 0 1 94.4451 76.0914)" stroke="white" stroke-width="1.33"/>
<circle cx="56.7091" cy="77.7226" r="2.215" stroke="white" stroke-width="1.33"/>
<circle cx="2.88" cy="2.88" r="2.215" transform="matrix(-1 0 0 1 76.5688 75.0399)" stroke="white" stroke-width="1.33"/>
</g>
<rect x="0.5" y="0.5" width="129" height="129" stroke="white"/>
<defs>
<clipPath id="clip0_8_81">
<rect width="130" height="130" fill="white"/>
</clipPath>
</defs>
</svg>
