<svg width="130" height="130" viewBox="0 0 130 130" fill="none" xmlns="http://www.w3.org/2000/svg">
<g clip-path="url(#clip0_113_14)">
<path d="M0.5 60H65H129.5" stroke="white" stroke-width="1.33" stroke-linecap="round" stroke-linejoin="round"/>
<path d="M129.5 83H64.5H0" stroke="white" stroke-width="1.33" stroke-linecap="round" stroke-linejoin="round"/>
<path d="M65 83L0.5 130M65 83L128.5 130M65 83L43 130M65 83L83 130" stroke="white" stroke-width="1.33" stroke-linecap="round" stroke-linejoin="round"/>
<path d="M65.4065 82.3909C63.096 82.6731 58.6233 82.5814 59.2159 79.957C59.3167 79.5104 59.4137 79.0736 59.506 78.6493M60.5387 72.7611C60.5916 71.597 60.2741 71.7558 59.745 71.1208C59.4503 70.7672 59.7301 70.3643 60.5387 70.0493M60.5387 72.7611H50.221L0.749146 75.5125L49.4273 70.0493L60.5387 69.5335M60.5387 72.7611C60.5262 73.0349 60.4874 73.3965 60.4257 73.8322M65.0361 69.5335C64.2124 69.5335 64.3521 69.4842 63.4488 69.5335C63.0781 69.5537 62.7332 69.5842 62.4146 69.6234M62.4146 69.6234C62.6183 69.0643 62.8139 67.9038 61.9673 67.7345C60.9091 67.5229 60.5387 67.4171 60.5387 67.7345C60.5387 67.9335 60.5387 68.8331 60.5387 69.5335M62.4146 69.6234C61.625 69.7205 60.9969 69.8708 60.5387 70.0493M60.5387 70.0493C60.5387 69.9052 60.5387 69.727 60.5387 69.5335M60.5387 69.5335L43.9804 67.1423L45.2544 47.3248L39.5923 75.5125L43.9804 69.5335H60.5387ZM60.4257 73.8322C60.9924 73.4323 62.1834 72.5286 62.4146 72.113C62.7037 71.5935 63.4739 72.4175 63.653 72.4175C63.7963 72.4175 64.6348 72.119 65.0361 71.9697M60.4257 73.8322C60.2608 74.9966 59.9323 76.69 59.506 78.6493M59.506 78.6493C61.0587 79.0763 64.3733 79.8021 65.2099 79.2897" stroke="white" stroke-width="1.33" stroke-linejoin="round"/>
<path d="M64.0936 82.3909C66.4041 82.6731 70.8768 82.5814 70.2842 79.957C70.1834 79.5104 70.0865 79.0736 69.9941 78.6493M68.9614 72.7611C68.9085 71.597 69.226 71.7558 69.7551 71.1208C70.0498 70.7672 69.77 70.3643 68.9614 70.0493M68.9614 72.7611H79.2791L128.751 75.5125L80.0728 70.0493L68.9614 69.5335M68.9614 72.7611C68.9739 73.0349 69.0127 73.3965 69.0744 73.8322M64.464 69.5335C64.6286 69.5335 64.7547 69.5315 64.8583 69.5288M67.0855 69.6234C66.7669 69.5842 66.422 69.5537 66.0513 69.5335C65.3285 69.4941 65.2735 69.5177 64.8583 69.5288M67.0855 69.6234C66.8819 69.0643 66.6863 67.9038 67.5328 67.7345C68.5911 67.5229 68.9614 67.4171 68.9614 67.7345C68.9614 67.9335 68.9614 68.8331 68.9614 69.5335M67.0855 69.6234C67.8751 69.7205 68.5032 69.8708 68.9614 70.0493M68.9614 70.0493C68.9614 69.9052 68.9614 69.727 68.9614 69.5335M68.9614 69.5335L85.5197 67.1423L84.2457 47.3248L89.9079 75.5125L85.5197 69.5335H68.9614ZM69.0744 73.8322C68.5078 73.4323 67.3167 72.5286 67.0855 72.113C66.7965 71.5935 66.0262 72.4175 65.8471 72.4175C65.7421 72.4175 65.2642 72.2574 64.8583 72.113M69.0744 73.8322C69.2393 74.9966 69.5678 76.69 69.9941 78.6493M64.464 71.9697C64.5714 72.0097 64.7101 72.0603 64.8583 72.113M69.9941 78.6493C69.3973 78.8134 68.5402 79.0217 67.6635 79.1868M64.2902 79.2897C64.8053 79.6051 66.2594 79.4513 67.6635 79.1868M64.8583 72.113V76.3161M64.8583 76.3161C63.9668 76.1679 62.1933 76.5235 62.2315 79.1312M64.8583 76.3161C65.8369 76.1304 67.768 76.4447 67.6635 79.1868M64.8583 69.5288V-6" stroke="white" stroke-width="1.33" stroke-linejoin="round"/>
<path d="M27.6977 77.6048C27.6557 77.4789 27.2256 75.3841 27.0157 74.3524M28.6157 77.6048L29.3501 74.0901M38.6351 77.0278C38.6351 76.7969 37.9706 74.6759 37.6384 73.6442M40.1564 77.0278L40.9957 73.4082M50.0971 76.2671L48.9168 72.8574M51.5921 76.2671L52.5626 72.7" stroke="white" stroke-width="1.33"/>
<path d="M101.802 77.6048C101.844 77.4789 102.275 75.3841 102.484 74.3524M100.884 77.6048L100.15 74.0901M90.865 77.0278C90.865 76.7969 91.5295 74.6759 91.8617 73.6442M89.3438 77.0278L88.5044 73.4082M79.4031 76.2671L80.5834 72.8574M77.908 76.2671L76.9375 72.7" stroke="white" stroke-width="1.33"/>
<circle cx="39.362" cy="78.2982" r="2.05974" stroke="white" stroke-width="1.33"/>
<circle cx="1.39474" cy="1.39474" r="2.05974" transform="matrix(-1 0 0 1 91.5328 76.9035)" stroke="white" stroke-width="1.33"/>
<circle cx="28.1109" cy="78.9995" r="2.05974" stroke="white" stroke-width="1.33"/>
<circle cx="1.39474" cy="1.39474" r="2.05974" transform="matrix(-1 0 0 1 102.784 77.6048)" stroke="white" stroke-width="1.33"/>
<circle cx="50.968" cy="78.104" r="2.05974" stroke="white" stroke-width="1.33"/>
<circle cx="1.39474" cy="1.39474" r="2.05974" transform="matrix(-1 0 0 1 79.9268 76.7092)" stroke="white" stroke-width="1.33"/>
</g>
<rect x="0.5" y="0.5" width="129" height="129" stroke="white"/>
<defs>
<clipPath id="clip0_113_14">
<rect width="130" height="130" fill="white"/>
</clipPath>
</defs>
</svg>
