<svg width="130" height="130" viewBox="0 0 130 130" fill="none" xmlns="http://www.w3.org/2000/svg">
<g clip-path="url(#clip0_101_17)">
<circle cx="65" cy="13" r="69.335" stroke="white" stroke-width="1.33"/>
<circle cx="65" cy="-22" r="62.335" stroke="white" stroke-width="1.33"/>
<circle cx="63" cy="63" r="62.335" transform="matrix(1 0 0 -1 2 215)" stroke="white" stroke-width="1.33"/>
<circle cx="65" cy="-34" r="46.335" stroke="white" stroke-width="1.33"/>
<circle cx="47" cy="47" r="46.335" transform="matrix(1 0 0 -1 18 201)" stroke="white" stroke-width="1.33"/>
<path d="M0.5 60H65H129.5M64.5 129.5V0.5" stroke="white" stroke-width="1.33" stroke-linecap="round" stroke-linejoin="round"/>
<path d="M129.5 89.5H64.5H0" stroke="white" stroke-width="1.33" stroke-linecap="round" stroke-linejoin="round"/>
<path d="M65.4065 82.0661C63.096 82.3483 58.6233 82.2566 59.2159 79.6322C59.3167 79.1856 59.4137 78.7489 59.506 78.3246M60.5387 72.4363C60.5916 71.2723 60.2741 71.431 59.745 70.7961C59.4503 70.4424 59.7301 70.0395 60.5387 69.7245M60.5387 72.4363H50.221L0.749146 75.1877L49.4273 69.7245L60.5387 69.2087M60.5387 72.4363C60.5262 72.7101 60.4874 73.0718 60.4257 73.5075M65.0361 69.2087C64.2124 69.2087 64.3521 69.1595 63.4488 69.2087C63.0781 69.229 62.7332 69.2595 62.4146 69.2986M62.4146 69.2986C62.6183 68.7396 62.8139 67.5791 61.9673 67.4098C60.9091 67.1981 60.5387 67.0923 60.5387 67.4098C60.5387 67.6088 60.5387 68.5084 60.5387 69.2087M62.4146 69.2986C61.625 69.3957 60.9969 69.546 60.5387 69.7245M60.5387 69.7245C60.5387 69.5805 60.5387 69.4022 60.5387 69.2087M60.5387 69.2087L43.9804 66.8176L45.2544 47L39.5923 75.1877L43.9804 69.2087H60.5387ZM60.4257 73.5075C60.9924 73.1075 62.1834 72.2038 62.4146 71.7882C62.7037 71.2688 63.4739 72.0928 63.653 72.0928C63.7963 72.0928 64.6348 71.7942 65.0361 71.6449M60.4257 73.5075C60.2608 74.6719 59.9323 76.3652 59.506 78.3246M59.506 78.3246C61.0587 78.7515 64.3733 79.4773 65.2099 78.965" stroke="white" stroke-width="1.33" stroke-linejoin="round"/>
<path d="M64.0936 82.0661C66.4041 82.3483 70.8768 82.2566 70.2842 79.6322C70.1834 79.1856 70.0865 78.7489 69.9941 78.3246M68.9614 72.4363C68.9085 71.2723 69.226 71.431 69.7551 70.7961C70.0498 70.4424 69.77 70.0395 68.9614 69.7245M68.9614 72.4363H79.2791L128.751 75.1877L80.0728 69.7245L68.9614 69.2087M68.9614 72.4363C68.9739 72.7101 69.0127 73.0718 69.0744 73.5075M64.464 69.2087C65.2877 69.2087 65.148 69.1595 66.0513 69.2087C66.422 69.229 66.7669 69.2595 67.0855 69.2986M67.0855 69.2986C66.8819 68.7396 66.6863 67.5791 67.5328 67.4098C68.5911 67.1981 68.9614 67.0923 68.9614 67.4098C68.9614 67.6088 68.9614 68.5084 68.9614 69.2087M67.0855 69.2986C67.8751 69.3957 68.5032 69.546 68.9614 69.7245M68.9614 69.7245C68.9614 69.5805 68.9614 69.4022 68.9614 69.2087M68.9614 69.2087L85.5197 66.8176L84.2457 47L89.9079 75.1877L85.5197 69.2087H68.9614ZM69.0744 73.5075C68.5078 73.1075 67.3167 72.2038 67.0855 71.7882C66.7965 71.2688 66.0262 72.0928 65.8471 72.0928C65.7421 72.0928 65.2642 71.9326 64.8583 71.7882M69.0744 73.5075C69.2393 74.6719 69.5678 76.3652 69.9941 78.3246M64.464 71.6449C64.5714 71.6849 64.7101 71.7355 64.8583 71.7882M69.9941 78.3246C69.3973 78.4887 68.5402 78.6969 67.6635 78.8621M64.2902 78.965C64.8053 79.2804 66.2594 79.1265 67.6635 78.8621M64.8583 71.7882V75.9913M64.8583 75.9913C63.9668 75.8431 62.1933 76.1988 62.2315 78.8065M64.8583 75.9913C65.8369 75.8057 67.768 76.12 67.6635 78.8621" stroke="white" stroke-width="1.33" stroke-linejoin="round"/>
<path d="M27.6977 77.28C27.6557 77.1541 27.2256 75.0593 27.0157 74.0277M28.6157 77.28L29.3501 73.7654M38.6351 76.703C38.6351 76.4722 37.9706 74.3511 37.6384 73.3195M40.1564 76.703L40.9957 73.0834M50.0971 75.9424L48.9168 72.5326M51.5921 75.9424L52.5626 72.3752" stroke="white" stroke-width="1.33"/>
<path d="M101.802 77.28C101.844 77.1541 102.275 75.0593 102.484 74.0277M100.884 77.28L100.15 73.7654M90.865 76.703C90.865 76.4722 91.5295 74.3511 91.8617 73.3195M89.3438 76.703L88.5044 73.0834M79.4031 75.9424L80.5834 72.5326M77.908 75.9424L76.9375 72.3752" stroke="white" stroke-width="1.33"/>
<circle cx="39.362" cy="77.9735" r="2.05974" stroke="white" stroke-width="1.33"/>
<circle cx="1.39474" cy="1.39474" r="2.05974" transform="matrix(-1 0 0 1 91.5328 76.5787)" stroke="white" stroke-width="1.33"/>
<circle cx="28.1109" cy="78.6748" r="2.05974" stroke="white" stroke-width="1.33"/>
<circle cx="1.39474" cy="1.39474" r="2.05974" transform="matrix(-1 0 0 1 102.784 77.28)" stroke="white" stroke-width="1.33"/>
<circle cx="50.968" cy="77.7792" r="2.05974" stroke="white" stroke-width="1.33"/>
<circle cx="1.39474" cy="1.39474" r="2.05974" transform="matrix(-1 0 0 1 79.9268 76.3845)" stroke="white" stroke-width="1.33"/>
</g>
<rect x="0.5" y="0.5" width="129" height="129" rx="64.5" stroke="white"/>
<defs>
<clipPath id="clip0_101_17">
<rect width="130" height="130" rx="65" fill="white"/>
</clipPath>
</defs>
</svg>
