<svg width="130" height="130" viewBox="0 0 130 130" fill="none" xmlns="http://www.w3.org/2000/svg">
<path d="M8 95.5H34M95 95.5H122.5" stroke="white" stroke-width="1.33"/>
<g clip-path="url(#clip0_8_99)">
<path d="M66.3273 83.9148C64.0168 84.197 59.5441 84.1053 60.1367 81.4809C60.2375 81.0343 60.3344 80.5976 60.4268 80.1733M61.4594 74.285C61.5124 73.121 61.1949 73.2797 60.6658 72.6448C60.3711 72.2911 60.6509 71.8882 61.4594 71.5732M61.4594 74.285H51.1418L1.66992 77.0364L50.3481 71.5732L61.4594 71.0574M61.4594 74.285C61.447 74.5588 61.4082 74.9205 61.3465 75.3561M65.9569 71.0574C65.1332 71.0574 65.2729 71.0082 64.3696 71.0574C63.9989 71.0776 63.654 71.1082 63.3354 71.1473M63.3354 71.1473C63.539 70.5883 63.7346 69.4278 62.8881 69.2585C61.8298 69.0468 61.4594 68.941 61.4594 69.2585C61.4594 69.4575 61.4594 70.357 61.4594 71.0574M63.3354 71.1473C62.5458 71.2444 61.9177 71.3947 61.4594 71.5732M61.4594 71.5732C61.4594 71.4291 61.4594 71.2509 61.4594 71.0574M61.4594 71.0574L44.9012 68.6662L46.1752 48.8487L40.513 77.0364L44.9012 71.0574H61.4594ZM61.3465 75.3561C61.9131 74.9562 63.1042 74.0525 63.3354 73.6369C63.6244 73.1175 64.3947 73.9415 64.5738 73.9415C64.7171 73.9415 65.5556 73.6429 65.9569 73.4936M61.3465 75.3561C61.1816 76.5205 60.8531 78.2139 60.4268 80.1733M60.4268 80.1733C61.9795 80.6002 65.294 81.326 66.1307 80.8137" stroke="white" stroke-width="1.33" stroke-linejoin="round"/>
<path d="M65.0144 83.9148C67.3249 84.197 71.7976 84.1053 71.205 81.4809C71.1042 81.0343 71.0072 80.5976 70.9149 80.1733M69.8822 74.285C69.8293 73.121 70.1468 73.2797 70.6759 72.6448C70.9706 72.2911 70.6908 71.8882 69.8822 71.5732M69.8822 74.285H80.1999L129.672 77.0364L80.9936 71.5732L69.8822 71.0574M69.8822 74.285C69.8947 74.5588 69.9335 74.9205 69.9952 75.3561M65.3848 71.0574C66.2085 71.0574 66.0688 71.0082 66.9721 71.0574C67.3428 71.0776 67.6877 71.1082 68.0063 71.1473M68.0063 71.1473C67.8026 70.5883 67.607 69.4278 68.4536 69.2585C69.5118 69.0468 69.8822 68.941 69.8822 69.2585C69.8822 69.4575 69.8822 70.357 69.8822 71.0574M68.0063 71.1473C68.7959 71.2444 69.424 71.3947 69.8822 71.5732M69.8822 71.5732C69.8822 71.4291 69.8822 71.2509 69.8822 71.0574M69.8822 71.0574L86.4405 68.6662L85.1665 48.8487L90.8286 77.0364L86.4405 71.0574H69.8822ZM69.9952 75.3561C69.4285 74.9562 68.2375 74.0525 68.0063 73.6369C67.7172 73.1175 66.947 73.9415 66.7679 73.9415C66.6629 73.9415 66.185 73.7813 65.7791 73.6369M69.9952 75.3561C70.1601 76.5205 70.4885 78.2139 70.9149 80.1733M65.3848 73.4936C65.4922 73.5336 65.6308 73.5842 65.7791 73.6369M70.9149 80.1733C70.3181 80.3374 69.4609 80.5456 68.5843 80.7107M65.211 80.8137C65.726 81.129 67.1802 80.9752 68.5843 80.7107M65.7791 73.6369V77.84M65.7791 77.84C64.8876 77.6918 63.1141 78.0475 63.1523 80.6552M65.7791 77.84C66.7577 77.6544 68.6888 77.9686 68.5843 80.7107" stroke="white" stroke-width="1.33" stroke-linejoin="round"/>
<path d="M28.6185 79.1287C28.5765 79.0028 28.1464 76.908 27.9365 75.8763M29.5365 79.1287L30.2709 75.6141M39.5559 78.5517C39.5559 78.3209 38.8914 76.1998 38.5592 75.1682M41.0771 78.5517L41.9165 74.9321M51.0178 77.791L49.8375 74.3813M52.5129 77.791L53.4833 74.2239" stroke="white" stroke-width="1.33"/>
<path d="M102.723 79.1287C102.765 79.0028 103.195 76.908 103.405 75.8763M101.805 79.1287L101.071 75.6141M91.7858 78.5517C91.7858 78.3209 92.4503 76.1998 92.7825 75.1682M90.2645 78.5517L89.4252 74.9321M80.3238 77.791L81.5041 74.3813M78.8288 77.791L77.8583 74.2239" stroke="white" stroke-width="1.33"/>
<circle cx="40.2828" cy="79.8222" r="2.05974" stroke="white" stroke-width="1.33"/>
<circle cx="1.39474" cy="1.39474" r="2.05974" transform="matrix(-1 0 0 1 92.4536 78.4274)" stroke="white" stroke-width="1.33"/>
<circle cx="29.0317" cy="80.5235" r="2.05974" stroke="white" stroke-width="1.33"/>
<circle cx="1.39474" cy="1.39474" r="2.05974" transform="matrix(-1 0 0 1 103.705 79.1287)" stroke="white" stroke-width="1.33"/>
<circle cx="51.8889" cy="79.6279" r="2.05974" stroke="white" stroke-width="1.33"/>
<circle cx="1.39474" cy="1.39474" r="2.05974" transform="matrix(-1 0 0 1 80.8475 78.2332)" stroke="white" stroke-width="1.33"/>
<path d="M22.5 44.5H44.5M89 44.5H111.5" stroke="white" stroke-width="1.33"/>
<path d="M10 62.5H38M95 62.5H123" stroke="white" stroke-width="1.33"/>
</g>
<defs>
<clipPath id="clip0_8_99">
<rect width="129" height="51" fill="white" transform="translate(0 34)"/>
</clipPath>
</defs>
</svg>
