<svg width="94" height="94" viewBox="0 0 94 94" fill="none" xmlns="http://www.w3.org/2000/svg">
<path d="M93.5 47.9192C93.5 73.5809 72.2012 93.5 46.5 93.5C20.8128 93.5 0.5 73.5945 0.5 47.9192C0.5 22.2182 20.8381 0.5 46.5 0.5C72.1756 0.5 93.5 22.2322 93.5 47.9192Z" stroke="white"/>
<line x1="44.5933" y1="11.4192" x2="50.4068" y2="11.4192" stroke="white"/>
<line x1="42.6549" y1="13.1642" x2="45.1464" y2="11.5032" stroke="white"/>
<line y1="-0.5" x2="2.99443" y2="-0.5" transform="matrix(-0.83205 -0.5547 -0.5547 0.83205 52.0679 13.5802)" stroke="white"/>
<line x1="42.1018" y1="13.0802" x2="53.7289" y2="13.0802" stroke="white"/>
<line x1="36.9814" y1="14.7604" x2="42.795" y2="13.0994" stroke="white"/>
<line x1="36.6188" y1="16.9022" x2="36.6188" y2="14.4107" stroke="white"/>
<line x1="43.7628" y1="15.5717" x2="52.0679" y2="15.5717" stroke="white"/>
<line x1="37.0636" y1="16.4053" x2="44.5381" y2="15.5748" stroke="white"/>
<line y1="-0.5" x2="6.04618" y2="-0.5" transform="matrix(-0.961524 -0.274721 -0.274721 0.961524 58.7119 15.2412)" stroke="white"/>
<line y1="-0.5" x2="2.49152" y2="-0.5" transform="matrix(0 -1 -1 0 58.7119 16.9022)" stroke="white"/>
<line y1="-0.5" x2="7.52056" y2="-0.5" transform="matrix(-0.993884 -0.110432 -0.110432 0.993884 58.7119 16.9022)" stroke="white"/>
<line x1="36.6418" y1="16.4253" x2="24.1842" y2="28.8829" stroke="white"/>
<line x1="70.8159" y1="28.8829" x2="58.3583" y2="16.4253" stroke="white"/>
<line x1="30.4272" y1="22.218" x2="47.8678" y2="20.557" stroke="white"/>
<line x1="47.1322" y1="20.557" x2="64.5729" y2="22.218" stroke="white"/>
<line x1="24.6611" y1="28.8598" x2="71.1695" y2="28.8598" stroke="white"/>
<line x1="44.5933" y1="28.0293" x2="50.4068" y2="28.0293" stroke="white"/>
<line x1="43.4323" y1="21.0547" x2="43.4323" y2="24.3768" stroke="white"/>
<line x1="51.7373" y1="21.0547" x2="51.7373" y2="24.3768" stroke="white"/>
<line x1="43.3965" y1="24.1911" x2="45.0575" y2="28.3436" stroke="white"/>
<line x1="49.9426" y1="28.3437" x2="51.6035" y2="24.1911" stroke="white"/>
<line x1="26.6526" y1="80.8513" x2="26.6526" y2="79.1902" stroke="white"/>
<line x1="31.3052" y1="80.5207" x2="27.1526" y2="80.5207" stroke="white"/>
<line x1="29.9746" y1="84.1733" x2="29.9746" y2="80.8512" stroke="white"/>
<line x1="29.6442" y1="84.5038" x2="32.9662" y2="84.5038" stroke="white"/>
<line x1="32.1356" y1="83.6733" x2="32.9661" y2="83.6733" stroke="white"/>
<line x1="36.6187" y1="85.8343" x2="36.6187" y2="83.3428" stroke="white"/>
<line x1="38.2797" y1="86.6648" x2="38.2797" y2="83.3428" stroke="white"/>
<line x1="37.9492" y1="86.3343" x2="36.2882" y2="86.3343" stroke="white"/>
<line y1="-0.5" x2="1.66101" y2="-0.5" transform="matrix(0 -1 -1 0 67.8474 80.8513)" stroke="white"/>
<line x1="63.6948" y1="80.3513" x2="67.8474" y2="80.3513" stroke="white"/>
<line y1="-0.5" x2="3.32203" y2="-0.5" transform="matrix(0 -1 -1 0 64.5254 84.1733)" stroke="white"/>
<line y1="-0.5" x2="3.32203" y2="-0.5" transform="matrix(-1 0 0 1 65.356 85.0038)" stroke="white"/>
<line y1="-0.5" x2="0.830507" y2="-0.5" transform="matrix(-1 0 0 1 62.8644 84.1733)" stroke="white"/>
<line y1="-0.5" x2="2.49152" y2="-0.5" transform="matrix(0 -1 -1 0 57.8813 85.8343)" stroke="white"/>
<line y1="-0.5" x2="3.32203" y2="-0.5" transform="matrix(0 -1 -1 0 56.2203 86.6648)" stroke="white"/>
<line y1="-0.5" x2="1.66101" y2="-0.5" transform="matrix(1 0 0 -1 57.0508 85.8343)" stroke="white"/>
<line x1="32.1356" y1="82.8428" x2="62.8644" y2="82.8428" stroke="white"/>
<line x1="32.5374" y1="82.7695" x2="30.0459" y2="78.617" stroke="white"/>
<line x1="64.9541" y1="78.617" x2="62.4626" y2="82.7695" stroke="white"/>
<line x1="34.0026" y1="87.2073" x2="61.0039" y2="87.4192" stroke="white"/>
<path d="M23 43.906L71.5847 43.9051" stroke="white"/>
<line x1="23.0001" y1="46.3005" x2="72" y2="46.3005" stroke="white"/>
<line x1="24.3306" y1="28.5293" x2="24.3306" y2="44.309" stroke="white"/>
<line x1="70.839" y1="28.5293" x2="70.839" y2="44.309" stroke="white"/>
<line x1="49.2458" y1="35.1734" x2="49.2458" y2="39.3259" stroke="white"/>
<line x1="66.6864" y1="35.1734" x2="66.6864" y2="39.3259" stroke="white"/>
<line x1="50.4069" y1="40.4869" x2="65.356" y2="40.4869" stroke="white"/>
<line x1="49.0994" y1="38.9723" x2="50.7604" y2="40.6334" stroke="white"/>
<line x1="65.0024" y1="40.6334" x2="66.6634" y2="38.9723" stroke="white"/>
<line x1="66.517" y1="35.1734" x2="66.517" y2="31.6141" stroke="white"/>
<line x1="49.0763" y1="35.1734" x2="49.0763" y2="31.6141" stroke="white"/>
<line x1="65.356" y1="30.6903" x2="50.4068" y2="30.6903" stroke="white"/>
<line y1="-0.5" x2="2.18768" y2="-0.5" transform="matrix(-0.759257 -0.650791 0.759257 -0.650791 67.017 31.614)" stroke="white"/>
<line y1="-0.5" x2="2.18768" y2="-0.5" transform="matrix(-0.759257 0.650791 -0.759257 -0.650791 50.4069 30.1903)" stroke="white"/>
<line x1="28.4832" y1="35.1734" x2="28.4832" y2="39.3259" stroke="white"/>
<line x1="45.9238" y1="35.1734" x2="45.9238" y2="39.3259" stroke="white"/>
<line x1="29.6442" y1="40.4869" x2="44.5933" y2="40.4869" stroke="white"/>
<line x1="28.3367" y1="38.9723" x2="29.9977" y2="40.6334" stroke="white"/>
<line x1="44.2397" y1="40.6334" x2="45.9007" y2="38.9723" stroke="white"/>
<line x1="45.7543" y1="35.1734" x2="45.7543" y2="31.6141" stroke="white"/>
<line x1="28.3136" y1="35.1734" x2="28.3136" y2="31.6141" stroke="white"/>
<line x1="44.5933" y1="30.6903" x2="29.6441" y2="30.6903" stroke="white"/>
<line y1="-0.5" x2="2.18768" y2="-0.5" transform="matrix(-0.759257 -0.650791 0.759257 -0.650791 46.2543 31.614)" stroke="white"/>
<line y1="-0.5" x2="2.18768" y2="-0.5" transform="matrix(-0.759257 0.650791 -0.759257 -0.650791 29.6442 30.1903)" stroke="white"/>
<line x1="23.5001" y1="44.309" x2="23.5001" y2="45.97" stroke="white"/>
<line x1="71.6694" y1="43.4785" x2="71.6694" y2="45.97" stroke="white"/>
<line x1="26.8221" y1="28.5293" x2="26.8221" y2="43.4785" stroke="white"/>
<line x1="68.3474" y1="28.5293" x2="68.3474" y2="43.4785" stroke="white"/>
<line x1="24.6611" y1="65.5716" x2="23.0001" y2="65.5716" stroke="white"/>
<line x1="23.5001" y1="65.9021" x2="23.5001" y2="80.8512" stroke="white"/>
<line y1="-0.5" x2="1.66101" y2="-0.5" transform="matrix(1 0 0 -1 70.339 65.0716)" stroke="white"/>
<line x1="71.6696" y1="65.9021" x2="71.6696" y2="80.8512" stroke="white"/>
<line x1="23.4771" y1="80.4977" x2="25.1381" y2="78.8367" stroke="white"/>
<line x1="27.1527" y1="78.8597" x2="24.6612" y2="78.8597" stroke="white"/>
<line y1="-0.5" x2="2.34903" y2="-0.5" transform="matrix(-0.707107 -0.707107 -0.707107 0.707107 71.1696 80.8513)" stroke="white"/>
<path d="M67.8475 78.775H70.3391" stroke="white"/>
<line x1="24.3307" y1="46.8005" x2="24.3307" y2="65.0716" stroke="white"/>
<line x1="70.839" y1="46.8005" x2="70.839" y2="65.0716" stroke="white"/>
<line x1="34.2968" y1="61.7496" x2="34.2968" y2="65.9021" stroke="white"/>
<line x1="26.3221" y1="65.4022" x2="33.7967" y2="65.4022" stroke="white"/>
<line x1="26.3221" y1="62.0801" x2="33.7967" y2="62.0801" stroke="white"/>
<line x1="60.8729" y1="61.7496" x2="60.8729" y2="65.9021" stroke="white"/>
<line x1="61.2034" y1="65.4022" x2="68.6779" y2="65.4022" stroke="white"/>
<line x1="61.2034" y1="62.0801" x2="68.6779" y2="62.0801" stroke="white"/>
<line x1="25.9917" y1="60.0886" x2="25.9917" y2="79.1902" stroke="white"/>
<line x1="69.178" y1="60.0886" x2="69.178" y2="79.1902" stroke="white"/>
<line x1="26.3221" y1="78.6902" x2="68.678" y2="78.6902" stroke="white"/>
<line x1="26.322" y1="69.4869" x2="69.0001" y2="69.4869" stroke="white"/>
<line x1="24.6611" y1="60.4191" x2="70.339" y2="60.4191" stroke="white"/>
<line x1="29.6442" y1="78.8564" x2="65.356" y2="78.8564" stroke="white"/>
<line x1="25.9917" y1="61.7496" x2="25.9917" y2="65.9021" stroke="white"/>
<line x1="69.178" y1="61.7496" x2="69.178" y2="65.9021" stroke="white"/>
<line x1="30.1756" y1="84.3874" x2="22.1756" y2="87.3874" stroke="white"/>
<line x1="71.803" y1="87.3788" x2="64.803" y2="84.3788" stroke="white"/>
<line x1="42.6" y1="67.5592" x2="42.6" y2="75.8643" stroke="white"/>
<line x1="52.566" y1="67.5592" x2="52.566" y2="75.8643" stroke="white"/>
<line x1="42.9304" y1="75.3643" x2="52.066" y2="75.3643" stroke="white"/>
<line x1="42.9304" y1="67.8897" x2="52.066" y2="67.8897" stroke="white"/>
</svg>
