<svg width="95" height="94" viewBox="0 0 95 94" fill="none" xmlns="http://www.w3.org/2000/svg">
<line x1="94.5" y1="0.919189" x2="94.5" y2="94" stroke="white"/>
<line x1="0.5" y1="1.89899" x2="0.5" y2="94" stroke="white"/>
<line y1="1.39899" x2="94" y2="1.39899" stroke="white"/>
<line y1="93.5" x2="94" y2="93.5" stroke="white"/>
<line x1="47.5" y1="1.89899" x2="47.5" y2="94" stroke="white"/>
<line x1="33.5" y1="1.89899" x2="33.5" y2="93.0202" stroke="white"/>
<line x1="61.5" y1="93.0202" x2="61.5" y2="1.89899" stroke="white"/>
<line x1="44.5933" y1="11.4192" x2="50.4068" y2="11.4192" stroke="white"/>
<line x1="42.6549" y1="13.1642" x2="45.1464" y2="11.5032" stroke="white"/>
<line y1="-0.5" x2="2.99443" y2="-0.5" transform="matrix(-0.83205 -0.5547 -0.5547 0.83205 52.0679 13.5802)" stroke="white"/>
<line x1="42.1018" y1="13.0802" x2="53.7289" y2="13.0802" stroke="white"/>
<line x1="36.9814" y1="14.7604" x2="42.795" y2="13.0994" stroke="white"/>
<line x1="36.6188" y1="16.9022" x2="36.6188" y2="14.4107" stroke="white"/>
<line x1="43.7628" y1="15.5717" x2="52.0679" y2="15.5717" stroke="white"/>
<line x1="37.0636" y1="16.4053" x2="44.5381" y2="15.5748" stroke="white"/>
<line y1="-0.5" x2="6.04618" y2="-0.5" transform="matrix(-0.961524 -0.274721 -0.274721 0.961524 58.7119 15.2412)" stroke="white"/>
<line y1="-0.5" x2="2.49152" y2="-0.5" transform="matrix(0 -1 -1 0 58.7119 16.9022)" stroke="white"/>
<line y1="-0.5" x2="7.52056" y2="-0.5" transform="matrix(-0.993884 -0.110432 -0.110432 0.993884 58.7119 16.9022)" stroke="white"/>
<line x1="36.6418" y1="16.4253" x2="24.1842" y2="28.8829" stroke="white"/>
<line x1="70.8159" y1="28.8829" x2="58.3583" y2="16.4253" stroke="white"/>
<line x1="30.4272" y1="22.218" x2="47.8678" y2="20.557" stroke="white"/>
<line x1="47.1322" y1="20.557" x2="64.5729" y2="22.218" stroke="white"/>
<line x1="24.6611" y1="28.8598" x2="71.1695" y2="28.8598" stroke="white"/>
<line x1="36.6188" y1="85.8343" x2="36.6188" y2="83.3428" stroke="white"/>
<line x1="38.2798" y1="86.6648" x2="38.2798" y2="83.3428" stroke="white"/>
<line x1="37.9492" y1="86.3343" x2="36.2882" y2="86.3343" stroke="white"/>
<line y1="-0.5" x2="2.49152" y2="-0.5" transform="matrix(0 -1 -1 0 57.8813 85.8343)" stroke="white"/>
<line y1="-0.5" x2="3.32203" y2="-0.5" transform="matrix(0 -1 -1 0 56.2203 86.6648)" stroke="white"/>
<line y1="-0.5" x2="1.66101" y2="-0.5" transform="matrix(1 0 0 -1 57.0509 85.8343)" stroke="white"/>
<line x1="32.1356" y1="82.8428" x2="62.8644" y2="82.8428" stroke="white"/>
<line x1="32.5374" y1="82.7695" x2="30.0459" y2="78.617" stroke="white"/>
<line x1="64.9541" y1="78.617" x2="62.4626" y2="82.7695" stroke="white"/>
<line x1="26.3221" y1="86.9953" x2="68.678" y2="86.9953" stroke="white"/>
<line x1="24.3306" y1="28.5293" x2="24.3306" y2="44.309" stroke="white"/>
<line x1="70.839" y1="28.5293" x2="70.839" y2="44.309" stroke="white"/>
<path d="M23 43.906L71.5847 43.9051" stroke="white"/>
<line x1="23.0001" y1="46.3004" x2="72" y2="46.3004" stroke="white"/>
<line x1="23.5001" y1="44.3089" x2="23.5001" y2="45.9699" stroke="white"/>
<line x1="71.6694" y1="43.4784" x2="71.6694" y2="45.9699" stroke="white"/>
<line x1="26.8221" y1="28.5293" x2="26.8221" y2="43.4785" stroke="white"/>
<line x1="68.3474" y1="28.5293" x2="68.3474" y2="43.4785" stroke="white"/>
<line x1="24.6611" y1="65.5716" x2="23.0001" y2="65.5716" stroke="white"/>
<line x1="23.5001" y1="65.9021" x2="23.5001" y2="80.8512" stroke="white"/>
<line y1="-0.5" x2="1.66101" y2="-0.5" transform="matrix(1 0 0 -1 70.339 65.0716)" stroke="white"/>
<line x1="71.6696" y1="65.9021" x2="71.6696" y2="80.8512" stroke="white"/>
<line x1="23.4771" y1="80.4977" x2="25.1381" y2="78.8367" stroke="white"/>
<line x1="27.1527" y1="78.8597" x2="24.6612" y2="78.8597" stroke="white"/>
<line y1="-0.5" x2="2.34903" y2="-0.5" transform="matrix(-0.707107 -0.707107 -0.707107 0.707107 71.1696 80.8513)" stroke="white"/>
<path d="M67.8475 78.775H70.3391" stroke="white"/>
<line x1="24.3307" y1="46.8005" x2="24.3307" y2="65.0716" stroke="white"/>
<line x1="70.839" y1="46.8005" x2="70.839" y2="65.0716" stroke="white"/>
<line x1="25.9917" y1="60.0886" x2="25.9917" y2="79.1902" stroke="white"/>
<line x1="69.178" y1="60.0886" x2="69.178" y2="79.1902" stroke="white"/>
<line x1="26.3221" y1="78.6902" x2="68.678" y2="78.6902" stroke="white"/>
<line x1="26.3146" y1="68.9869" x2="69.0075" y2="68.9869" stroke="white"/>
<line x1="24.6611" y1="60.4191" x2="70.339" y2="60.4191" stroke="white"/>
<line x1="29.6442" y1="78.8564" x2="65.356" y2="78.8564" stroke="white"/>
<line x1="25.9917" y1="61.7496" x2="25.9917" y2="65.9021" stroke="white"/>
<line x1="69.178" y1="61.7496" x2="69.178" y2="65.9021" stroke="white"/>
<line x1="34.2946" y1="61.7492" x2="34.2946" y2="65.9017" stroke="white"/>
<line x1="26.3199" y1="65.4018" x2="33.7945" y2="65.4018" stroke="white"/>
<line x1="26.3199" y1="62.2492" x2="33.7945" y2="62.2492" stroke="white"/>
<line x1="60.87" y1="61.7492" x2="60.87" y2="65.9017" stroke="white"/>
<line x1="61.2004" y1="65.4018" x2="68.675" y2="65.4018" stroke="white"/>
<line x1="61.2004" y1="62.0797" x2="68.675" y2="62.0797" stroke="white"/>
<line x1="49.2427" y1="35.1722" x2="49.2427" y2="39.3248" stroke="white"/>
<line x1="66.6832" y1="35.1722" x2="66.6832" y2="39.3248" stroke="white"/>
<line x1="50.4037" y1="40.4858" x2="65.3528" y2="40.4858" stroke="white"/>
<line x1="49.0962" y1="38.9712" x2="50.7572" y2="40.6322" stroke="white"/>
<line x1="64.9992" y1="40.6322" x2="66.6602" y2="38.9712" stroke="white"/>
<line x1="66.5138" y1="35.1722" x2="66.5138" y2="31.6129" stroke="white"/>
<line x1="49.0731" y1="35.1722" x2="49.0731" y2="31.6129" stroke="white"/>
<line x1="65.3528" y1="30.6892" x2="50.4037" y2="30.6892" stroke="white"/>
<line y1="-0.5" x2="2.18768" y2="-0.5" transform="matrix(-0.759257 -0.650791 0.759257 -0.650791 67.0138 31.6129)" stroke="white"/>
<line y1="-0.5" x2="2.18768" y2="-0.5" transform="matrix(-0.759257 0.650791 -0.759257 -0.650791 50.4037 30.1892)" stroke="white"/>
<line x1="28.48" y1="35.1722" x2="28.48" y2="39.3248" stroke="white"/>
<line x1="45.9207" y1="35.1722" x2="45.9207" y2="39.3248" stroke="white"/>
<line x1="29.641" y1="40.4858" x2="44.5901" y2="40.4858" stroke="white"/>
<line x1="28.3335" y1="38.9712" x2="29.9945" y2="40.6322" stroke="white"/>
<line x1="44.2365" y1="40.6322" x2="45.8975" y2="38.9712" stroke="white"/>
<line x1="45.7511" y1="35.1722" x2="45.7511" y2="31.6129" stroke="white"/>
<line x1="28.3104" y1="35.1722" x2="28.3104" y2="31.6129" stroke="white"/>
<line x1="44.5901" y1="30.6892" x2="29.641" y2="30.6892" stroke="white"/>
<line y1="-0.5" x2="2.18768" y2="-0.5" transform="matrix(-0.759257 -0.650791 0.759257 -0.650791 46.2511 31.6129)" stroke="white"/>
<line y1="-0.5" x2="2.18768" y2="-0.5" transform="matrix(-0.759257 0.650791 -0.759257 -0.650791 29.641 30.1892)" stroke="white"/>
</svg>
