<svg width="95" height="97" viewBox="0 0 95 97" fill="none" xmlns="http://www.w3.org/2000/svg">
<line x1="94.5" y1="2" x2="94.5" y2="97" stroke="white"/>
<line x1="0.5" y1="3" x2="0.5" y2="97" stroke="white"/>
<line y1="2.5" x2="94" y2="2.5" stroke="white"/>
<line y1="96.5" x2="94" y2="96.5" stroke="white"/>
<line x1="47.5" y1="3" x2="47.5" y2="97" stroke="white"/>
<line x1="1" y1="24.5" x2="94" y2="24.5" stroke="white"/>
<line x1="1" y1="62.5" x2="94" y2="62.5" stroke="white"/>
<line x1="33.5" y1="3" x2="33.5" y2="96" stroke="white"/>
<line x1="61.5" y1="96" x2="61.5" y2="3" stroke="white"/>
<line x1="44.7627" y1="10.5" x2="50.5762" y2="10.5" stroke="white"/>
<line y1="-0.5" x2="2.99961" y2="-0.5" transform="matrix(-0.830614 -0.556848 -0.552553 0.833478 52.2373 12.6703)" stroke="white"/>
<line x1="42.2712" y1="12.1703" x2="53.8983" y2="12.1703" stroke="white"/>
<line y1="-0.5" x2="6.04875" y2="-0.5" transform="matrix(0.961116 -0.276145 0.273304 0.961928 37.2882 14.3407)" stroke="white"/>
<line x1="36.7882" y1="16.011" x2="36.7882" y2="13.5055" stroke="white"/>
<line x1="43.9323" y1="14.6758" x2="52.2373" y2="14.6758" stroke="white"/>
<line y1="-0.5" x2="7.52056" y2="-0.5" transform="matrix(0.993816 -0.111043 0.109823 0.993951 37.2882 16.011)" stroke="white"/>
<line y1="-0.5" x2="6.04875" y2="-0.5" transform="matrix(-0.961116 -0.276145 -0.273304 0.961928 58.8813 14.3407)" stroke="white"/>
<line y1="-0.5" x2="2.50549" y2="-0.5" transform="matrix(0 -1 -1 0 58.8813 16.011)" stroke="white"/>
<line y1="-0.5" x2="7.52056" y2="-0.5" transform="matrix(-0.993816 -0.111043 -0.109823 0.993951 58.8813 16.011)" stroke="white"/>
<line y1="-0.5" x2="17.6672" y2="-0.5" transform="matrix(-0.705127 0.709081 -0.705127 -0.709081 36.4576 15.1758)" stroke="white"/>
<line y1="-0.5" x2="17.6672" y2="-0.5" transform="matrix(-0.705127 -0.709081 0.705127 -0.709081 71.3389 27.7033)" stroke="white"/>
<line y1="-0.5" x2="17.5196" y2="-0.5" transform="matrix(0.995445 -0.095336 0.094285 0.995545 30.644 21.8571)" stroke="white"/>
<line y1="-0.5" x2="17.5196" y2="-0.5" transform="matrix(0.995445 0.095336 -0.094285 0.995545 47.2543 20.1868)" stroke="white"/>
<line x1="24.8306" y1="28.0385" x2="71.3389" y2="28.0385" stroke="white"/>
<line y1="-0.5" x2="2.99961" y2="-0.5" transform="matrix(0.830614 -0.556848 0.552553 0.833478 43.1017 12.6703)" stroke="white"/>
<line x1="42.2712" y1="12.1703" x2="47.2543" y2="12.1703" stroke="white"/>
<line x1="24.3306" y1="27.7033" x2="24.3306" y2="43.5714" stroke="white"/>
<line x1="70.839" y1="27.7033" x2="70.839" y2="43.5714" stroke="white"/>
<line x1="24.6611" y1="64.9506" x2="23.0001" y2="64.9506" stroke="white"/>
<line x1="23.5001" y1="65.2857" x2="23.5001" y2="80.3186" stroke="white"/>
<line y1="-0.5" x2="1.66101" y2="-0.5" transform="matrix(1 0 0 -1 70.339 64.4506)" stroke="white"/>
<line x1="71.6694" y1="65.2857" x2="71.6694" y2="80.3186" stroke="white"/>
<line y1="-0.5" x2="2.35562" y2="-0.5" transform="matrix(0.705127 -0.709081 0.705127 0.709081 23.8306 80.3187)" stroke="white"/>
<line x1="27.1526" y1="78.3132" x2="24.6611" y2="78.3132" stroke="white"/>
<line y1="-0.5" x2="2.35562" y2="-0.5" transform="matrix(-0.705127 -0.709081 -0.705127 0.709081 71.1694 80.3187)" stroke="white"/>
<line y1="-0.5" x2="2.49152" y2="-0.5" transform="matrix(1 0 0 -1 67.8474 77.8132)" stroke="white"/>
<path d="M24.3306 43.5V64.4506" stroke="white"/>
<path d="M70.839 43.5V64.4506" stroke="white"/>
<line x1="26.3221" y1="78.1483" x2="68.678" y2="78.1483" stroke="white"/>
<line x1="24.6611" y1="59.7747" x2="70.339" y2="59.7747" stroke="white"/>
<line x1="29.6442" y1="78.1483" x2="65.356" y2="78.1483" stroke="white"/>
<line x1="36.6188" y1="85.3297" x2="36.6188" y2="81.989" stroke="white"/>
<line x1="38.2798" y1="86.1649" x2="38.2798" y2="81.989" stroke="white"/>
<line x1="37.9492" y1="85.8297" x2="36.2882" y2="85.8297" stroke="white"/>
<line x1="58.2119" y1="85.3297" x2="58.2119" y2="81.989" stroke="white"/>
<line x1="56.5509" y1="86.1649" x2="56.5509" y2="81.989" stroke="white"/>
<line y1="-0.5" x2="1.66101" y2="-0.5" transform="matrix(1 0 0 -1 57.0509 85.3297)" stroke="white"/>
<line x1="1" y1="86.5" x2="94" y2="86.5" stroke="white"/>
<line x1="32.1356" y1="81.489" x2="62.8644" y2="81.489" stroke="white"/>
<line y1="-0.5" x2="4.16745" y2="-0.5" transform="matrix(-0.597852 -0.801607 0.798385 -0.602147 32.9662 81.1539)" stroke="white"/>
<line y1="-0.5" x2="4.16745" y2="-0.5" transform="matrix(-0.597853 0.801606 -0.798384 -0.602149 64.5254 77.8132)" stroke="white"/>
<path d="M23 42.9875L71.5847 42.9866" stroke="white"/>
<line x1="23.0001" y1="45.382" x2="72" y2="45.382" stroke="white"/>
<line x1="23.5001" y1="43.3905" x2="23.5001" y2="45.0515" stroke="white"/>
<line x1="71.6694" y1="42.56" x2="71.6694" y2="45.0515" stroke="white"/>
</svg>
