<svg width="95" height="97" viewBox="0 0 95 97" fill="none" xmlns="http://www.w3.org/2000/svg">
<line x1="94.5" y1="2" x2="94.5" y2="97" stroke="white"/>
<line x1="0.5" y1="3" x2="0.5" y2="97" stroke="white"/>
<line y1="2.5" x2="94" y2="2.5" stroke="white"/>
<line y1="96.5" x2="94" y2="96.5" stroke="white"/>
<line x1="47.5" y1="3" x2="47.5" y2="97" stroke="white"/>
<line y1="49.5" x2="94" y2="49.5" stroke="white"/>
<path d="M30.4861 20H65.1944" stroke="white"/>
<line x1="64.3123" y1="21.898" x2="66.354" y2="28.7035" stroke="white"/>
<line x1="29.3266" y1="28.7035" x2="31.3684" y2="21.898" stroke="white"/>
<line x1="31.1666" y1="21.5417" x2="64.5138" y2="21.5417" stroke="white"/>
<line x1="28.9445" y1="25.3243" x2="28.9445" y2="32.9305" stroke="white"/>
<line y1="-0.5" x2="5.70237" y2="-0.5" transform="matrix(-0.358038 0.933707 -0.901878 -0.431992 30.4861 20)" stroke="white"/>
<line y1="-0.5" x2="7.60621" y2="-0.5" transform="matrix(0 1 1 0 67.2361 25.3243)" stroke="white"/>
<line y1="-0.5" x2="5.70237" y2="-0.5" transform="matrix(0.358038 0.933707 0.901878 -0.431992 65.1945 20)" stroke="white"/>
<line x1="29.1251" y1="71.9027" x2="66.5557" y2="71.9027" stroke="white"/>
<line x1="29.3057" y1="73.7638" x2="29.3057" y2="72.4027" stroke="white"/>
<line x1="57.889" y1="73.7638" x2="57.889" y2="72.4027" stroke="white"/>
<line x1="27.0835" y1="73.2638" x2="29.8057" y2="73.2638" stroke="white"/>
<line x1="29.3057" y1="74.4444" x2="29.3057" y2="73.7638" stroke="white"/>
<line x1="47.5001" y1="74.2638" x2="29.8057" y2="74.2638" stroke="white"/>
<line y1="-0.5" x2="1.36111" y2="-0.5" transform="matrix(0 -1 -1 0 68.5974 73.7638)" stroke="white"/>
<line y1="-0.5" x2="2.72222" y2="-0.5" transform="matrix(-1 0 0 1 68.5974 73.7638)" stroke="white"/>
<line y1="-0.5" x2="0.680556" y2="-0.5" transform="matrix(0 -1 -1 0 65.8751 74.4444)" stroke="white"/>
<line y1="-0.5" x2="17.6944" y2="-0.5" transform="matrix(1 0 0 -1 48.1807 73.7638)" stroke="white"/>
<line x1="66.0557" y1="73.0833" x2="66.0557" y2="72.4027" stroke="white"/>
<line x1="37.4724" y1="73.7638" x2="37.4724" y2="72.4027" stroke="white"/>
<line x1="26.9028" y1="62.1945" x2="26.9028" y2="72.4028" stroke="white"/>
<line x1="69.0973" y1="62.1945" x2="69.0973" y2="72.4028" stroke="white"/>
<line x1="26.4028" y1="61.0139" x2="69.2778" y2="61.0139" stroke="white"/>
<path d="M27.4237 60.8334V62.875" stroke="white"/>
<line x1="68.4167" y1="61.5139" x2="68.4167" y2="62.875" stroke="white"/>
<path d="M29 32.5L29.2222 60.836" stroke="white"/>
<path d="M66.7234 32.4973L66.832 60.8263" stroke="white"/>
<line x1="26.5834" y1="60.8334" x2="26.5834" y2="58.7917" stroke="white"/>
<line x1="28.904" y1="54.2248" x2="26.8624" y2="58.9887" stroke="white"/>
<path d="M68.9375 61.1736V58.7917" stroke="white"/>
<line y1="-0.5" x2="5.18296" y2="-0.5" transform="matrix(0.393919 0.919145 0.919145 -0.393919 67.2362 54.0278)" stroke="white"/>
<line x1="31.1667" y1="32.4305" x2="64.514" y2="32.4305" stroke="white"/>
<line x1="31.1667" y1="45.3611" x2="64.514" y2="45.3611" stroke="white"/>
<line x1="29.9862" y1="43.1389" x2="29.9862" y2="35.6527" stroke="white"/>
<line x1="31.4001" y1="45.4041" x2="30.039" y2="42.6819" stroke="white"/>
<line x1="30.022" y1="36.1476" x2="31.3831" y2="32.7448" stroke="white"/>
<line y1="-0.5" x2="7.48611" y2="-0.5" transform="matrix(0 -1 -1 0 65.1946 43.1389)" stroke="white"/>
<line y1="-0.5" x2="3.04354" y2="-0.5" transform="matrix(0.447214 -0.894427 -0.894427 -0.447214 63.8334 45.1805)" stroke="white"/>
<line y1="-0.5" x2="3.6649" y2="-0.5" transform="matrix(-0.371391 -0.928477 -0.928477 0.371391 65.1946 36.3333)" stroke="white"/>
<line x1="28.4399" y1="66.4622" x2="35.9261" y2="66.4622" stroke="white"/>
<line x1="29.9816" y1="66.2816" x2="29.9816" y2="64.24" stroke="white"/>
<line x1="28.6205" y1="66.2816" x2="28.6205" y2="64.24" stroke="white"/>
<line x1="28.4399" y1="63.74" x2="35.2455" y2="63.74" stroke="white"/>
<line x1="34.7455" y1="66.2816" x2="34.7455" y2="64.24" stroke="white"/>
<line y1="-0.5" x2="7.48611" y2="-0.5" transform="matrix(-1 0 0 1 67.2316 66.9622)" stroke="white"/>
<line y1="-0.5" x2="2.04167" y2="-0.5" transform="matrix(0 -1 -1 0 65.1899 66.2816)" stroke="white"/>
<line y1="-0.5" x2="2.04167" y2="-0.5" transform="matrix(0 -1 -1 0 66.551 66.2816)" stroke="white"/>
<line y1="-0.5" x2="6.80556" y2="-0.5" transform="matrix(-1 0 0 1 67.2316 64.24)" stroke="white"/>
<line y1="-0.5" x2="2.04167" y2="-0.5" transform="matrix(0 -1 -1 0 60.426 66.2816)" stroke="white"/>
<line x1="31.1621" y1="69.865" x2="65.1899" y2="69.865" stroke="white"/>
<line x1="31.1621" y1="67.8233" x2="37.9677" y2="67.8233" stroke="white"/>
<line x1="30.9816" y1="67.6428" x2="30.9816" y2="70.365" stroke="white"/>
<line x1="39.3289" y1="67.1428" x2="56.3427" y2="67.1428" stroke="white"/>
<line x1="37.8097" y1="67.849" x2="39.8513" y2="67.1684" stroke="white"/>
<line y1="-0.5" x2="6.80556" y2="-0.5" transform="matrix(-1 0 0 1 64.5094 68.3233)" stroke="white"/>
<line y1="-0.5" x2="2.72222" y2="-0.5" transform="matrix(0 1 1 0 65.1899 67.6428)" stroke="white"/>
<line y1="-0.5" x2="2.15211" y2="-0.5" transform="matrix(-0.948683 -0.316228 -0.316228 0.948683 57.7039 68.3233)" stroke="white"/>
<line x1="26.5" y1="3" x2="26.5" y2="96" stroke="white"/>
<line x1="69.5" y1="3" x2="69.5" y2="96" stroke="white"/>
</svg>
