<svg width="95" height="97" viewBox="0 0 95 97" fill="none" xmlns="http://www.w3.org/2000/svg">
<path d="M30.4861 20H65.1944" stroke="white"/>
<line x1="64.3122" y1="21.898" x2="66.3539" y2="28.7036" stroke="white"/>
<line x1="29.3268" y1="28.7035" x2="31.3685" y2="21.898" stroke="white"/>
<path d="M28.9443 32.8548V54.7083" stroke="white"/>
<line x1="26.5833" y1="73.0833" x2="26.5833" y2="58.7916" stroke="white"/>
<line x1="28.9039" y1="54.2248" x2="26.8622" y2="58.9887" stroke="white"/>
<line y1="-0.5" x2="14.2917" y2="-0.5" transform="matrix(0 -1 -1 0 68.5972 73.0833)" stroke="white"/>
<line y1="-0.5" x2="5.18296" y2="-0.5" transform="matrix(0.393919 0.919145 0.919145 -0.393919 67.2361 54.0278)" stroke="white"/>
<line x1="28.9443" y1="25.3244" x2="28.9443" y2="32.9306" stroke="white"/>
<line y1="-0.5" x2="5.70237" y2="-0.5" transform="matrix(-0.358038 0.933707 -0.901878 -0.431992 30.4861 20)" stroke="white"/>
<line x1="66.7361" y1="25.0041" x2="66.5" y2="53.6798" stroke="white"/>
<line y1="-0.5" x2="5.70237" y2="-0.5" transform="matrix(0.358038 0.933707 0.901878 -0.431992 65.1943 20)" stroke="white"/>
<line x1="31.3405" y1="22.6277" x2="64.7022" y2="22.6277" stroke="white"/>
<line x1="27.0834" y1="73.2639" x2="29.8056" y2="73.2639" stroke="white"/>
<line x1="65.8751" y1="74.2639" x2="29.8057" y2="74.2639" stroke="white"/>
<line y1="-0.5" x2="2.72222" y2="-0.5" transform="matrix(-1 0 0 1 68.5973 73.7639)" stroke="white"/>
<line x1="94.5" y1="2" x2="94.5" y2="97" stroke="white"/>
<line x1="0.5" y1="3" x2="0.5" y2="97" stroke="white"/>
<line y1="2.5" x2="94" y2="2.5" stroke="white"/>
<line y1="96.5" x2="94" y2="96.5" stroke="white"/>
<line x1="47.5" y1="3" x2="47.5" y2="97" stroke="white"/>
<line y1="49.5" x2="94" y2="49.5" stroke="white"/>
<line x1="-0.00268555" y1="21" x2="94.0026" y2="21" stroke="white"/>
<line x1="12.5" y1="96" x2="12.5" y2="3" stroke="white"/>
<line x1="83.5" y1="97" x2="83.5" y2="3" stroke="white"/>
<line x1="1" y1="73.5" x2="94" y2="73.5" stroke="white"/>
<line x1="26.5" y1="3" x2="26.5" y2="96" stroke="white"/>
<line x1="69.5" y1="3" x2="69.5" y2="96" stroke="white"/>
</svg>
