<svg width="102" height="105" viewBox="0 0 102 105" fill="none" xmlns="http://www.w3.org/2000/svg">
<g filter="url(#filter0_d_45_245)">
<line x1="31.4445" y1="66.4583" x2="38.9306" y2="66.4583" stroke="white"/>
<line x1="31.625" y1="66.2777" x2="31.625" y2="64.2361" stroke="white"/>
<line x1="31.4445" y1="63.7361" x2="38.25" y2="63.7361" stroke="white"/>
<line x1="37.75" y1="66.2777" x2="37.75" y2="64.2361" stroke="white"/>
<line y1="-0.5" x2="7.48611" y2="-0.5" transform="matrix(-1 0 0 1 70.2361 66.9583)" stroke="white"/>
<line y1="-0.5" x2="2.04167" y2="-0.5" transform="matrix(0 -1 -1 0 69.5555 66.2777)" stroke="white"/>
<line y1="-0.5" x2="6.80556" y2="-0.5" transform="matrix(-1 0 0 1 70.2361 64.2361)" stroke="white"/>
<line y1="-0.5" x2="2.04167" y2="-0.5" transform="matrix(0 -1 -1 0 63.4305 66.2777)" stroke="white"/>
<line x1="34.1666" y1="69.8611" x2="68.1944" y2="69.8611" stroke="white"/>
<line x1="34.1666" y1="67.8194" x2="40.9722" y2="67.8194" stroke="white"/>
<line x1="33.9861" y1="67.6389" x2="33.9861" y2="70.3611" stroke="white"/>
<line x1="42.3334" y1="67.1389" x2="59.3473" y2="67.1389" stroke="white"/>
<line x1="40.8142" y1="67.8451" x2="42.8558" y2="67.1645" stroke="white"/>
<line y1="-0.5" x2="6.80556" y2="-0.5" transform="matrix(-1 0 0 1 67.5139 68.3194)" stroke="white"/>
<line y1="-0.5" x2="2.72222" y2="-0.5" transform="matrix(0 1 1 0 68.1945 67.6389)" stroke="white"/>
<line y1="-0.5" x2="2.15211" y2="-0.5" transform="matrix(-0.948683 -0.316228 -0.316228 0.948683 60.7084 68.3194)" stroke="white"/>
<line x1="34.1667" y1="32.4305" x2="67.514" y2="32.4305" stroke="white"/>
<line x1="34.1667" y1="45.3611" x2="67.514" y2="45.3611" stroke="white"/>
<line x1="32.9862" y1="43.1389" x2="32.9862" y2="35.6527" stroke="white"/>
<line x1="34.4001" y1="45.4041" x2="33.039" y2="42.6819" stroke="white"/>
<line x1="33.022" y1="36.1476" x2="34.3831" y2="32.7448" stroke="white"/>
<line y1="-0.5" x2="7.48611" y2="-0.5" transform="matrix(0 -1 -1 0 68.1946 43.1389)" stroke="white"/>
<line y1="-0.5" x2="3.04354" y2="-0.5" transform="matrix(0.447214 -0.894427 -0.894427 -0.447214 66.8335 45.1805)" stroke="white"/>
<line y1="-0.5" x2="3.6649" y2="-0.5" transform="matrix(-0.371391 -0.928477 -0.928477 0.371391 68.1946 36.3333)" stroke="white"/>
<line x1="33.4862" y1="29.7083" x2="68.1945" y2="29.7083" stroke="white"/>
<line x1="35.0278" y1="61.5139" x2="35.0278" y2="45.1806" stroke="white"/>
<line x1="66.3334" y1="61.5139" x2="66.3334" y2="45.1806" stroke="white"/>
<line x1="29.4028" y1="61.0139" x2="72.2778" y2="61.0139" stroke="white"/>
<path d="M33.4861 20H68.1944" stroke="white"/>
<line x1="67.3123" y1="21.898" x2="69.354" y2="28.7035" stroke="white"/>
<line x1="32.3266" y1="28.7035" x2="34.3684" y2="21.898" stroke="white"/>
<line x1="34.1666" y1="21.5417" x2="67.5138" y2="21.5417" stroke="white"/>
<line x1="32.625" y1="28.1667" x2="32.625" y2="32.9305" stroke="white"/>
<line x1="69.375" y1="28.1667" x2="69.375" y2="32.9305" stroke="white"/>
<line x1="31.9445" y1="33.6111" x2="31.9445" y2="60.8333" stroke="white"/>
<line x1="70.0555" y1="33.6111" x2="70.0555" y2="60.8333" stroke="white"/>
<line x1="29.5834" y1="60.8333" x2="29.5834" y2="58.7917" stroke="white"/>
<line x1="31.904" y1="54.2247" x2="29.8624" y2="58.9886" stroke="white"/>
<path d="M71.9375 61.1736V58.7917" stroke="white"/>
<line y1="-0.5" x2="5.18296" y2="-0.5" transform="matrix(0.393919 0.919145 0.919145 -0.393919 70.2361 54.0278)" stroke="white"/>
<line x1="31.9445" y1="25.3243" x2="31.9445" y2="32.9305" stroke="white"/>
<line y1="-0.5" x2="5.70237" y2="-0.5" transform="matrix(-0.358038 0.933707 -0.901878 -0.431992 33.4861 20)" stroke="white"/>
<line y1="-0.5" x2="7.60621" y2="-0.5" transform="matrix(0 1 1 0 70.2361 25.3243)" stroke="white"/>
<line y1="-0.5" x2="5.70237" y2="-0.5" transform="matrix(0.358038 0.933707 0.901878 -0.431992 68.1945 20)" stroke="white"/>
<line x1="29.9028" y1="62.1944" x2="29.9028" y2="72.4028" stroke="white"/>
<line x1="72.0972" y1="62.1944" x2="72.0972" y2="72.4028" stroke="white"/>
<path d="M30.4236 60.8333V62.875" stroke="white"/>
<line x1="71.4166" y1="61.5139" x2="71.4166" y2="62.875" stroke="white"/>
<line x1="32.125" y1="71.9028" x2="68.875" y2="71.9028" stroke="white"/>
<line x1="32.3055" y1="73.7639" x2="32.3055" y2="72.4027" stroke="white"/>
<line x1="68.375" y1="73.7639" x2="68.375" y2="72.4027" stroke="white"/>
<line x1="29.5834" y1="73.7639" x2="29.5834" y2="72.4027" stroke="white"/>
<line x1="30.0834" y1="73.2639" x2="32.8056" y2="73.2639" stroke="white"/>
<line x1="32.3055" y1="74.4444" x2="32.3055" y2="73.7638" stroke="white"/>
<line x1="68.875" y1="74.2639" x2="32.8056" y2="74.2639" stroke="white"/>
<line y1="-0.5" x2="1.36111" y2="-0.5" transform="matrix(0 -1 -1 0 71.5972 73.7639)" stroke="white"/>
<line y1="-0.5" x2="2.72222" y2="-0.5" transform="matrix(-1 0 0 1 71.5972 73.7639)" stroke="white"/>
<line y1="-0.5" x2="0.680556" y2="-0.5" transform="matrix(0 -1 -1 0 68.875 74.4444)" stroke="white"/>
<line x1="17.6204" y1="82.6746" x2="29.6204" y2="68.6746" stroke="white"/>
<path d="M83.3395 84.0465L72 72.5" stroke="white"/>
<line x1="36.6503" y1="56.0833" x2="64.6135" y2="56.0833" stroke="white"/>
<line x1="36.1503" y1="58.3331" x2="36.1503" y2="56" stroke="white"/>
<line x1="64.7638" y1="58.3331" x2="64.7638" y2="56" stroke="white"/>
<line x1="43.1534" y1="59.5828" x2="58.1105" y2="59.5828" stroke="white"/>
<line y1="-0.5" x2="7.99748" y2="-0.5" transform="matrix(0.975771 0.218794 -0.2685 0.96328 36 58.3331)" stroke="white"/>
<line y1="-0.5" x2="7.99745" y2="-0.5" transform="matrix(0.975758 -0.218852 0.268569 0.96326 57.4602 60.0833)" stroke="white"/>
<circle cx="51" cy="50" r="46.5" stroke="white"/>
<line x1="34.3472" y1="62.1944" x2="34.3472" y2="61.5139" stroke="white"/>
<line x1="67.0139" y1="62.1944" x2="67.0139" y2="61.5139" stroke="white"/>
<line x1="34.1666" y1="62.375" x2="67.5138" y2="62.375" stroke="white"/>
<line x1="39.1111" y1="66.9583" x2="39.1111" y2="62.875" stroke="white"/>
<line x1="31.4445" y1="66.4583" x2="38.9306" y2="66.4583" stroke="white"/>
<line x1="31.625" y1="66.2777" x2="31.625" y2="64.2361" stroke="white"/>
<line x1="31.4445" y1="63.7361" x2="38.25" y2="63.7361" stroke="white"/>
<line x1="37.75" y1="66.2777" x2="37.75" y2="64.2361" stroke="white"/>
<line y1="-0.5" x2="4.08333" y2="-0.5" transform="matrix(0 -1 -1 0 62.0695 66.9583)" stroke="white"/>
<line y1="-0.5" x2="7.48611" y2="-0.5" transform="matrix(-1 0 0 1 70.2361 66.9583)" stroke="white"/>
<line y1="-0.5" x2="2.04167" y2="-0.5" transform="matrix(0 -1 -1 0 69.5555 66.2777)" stroke="white"/>
<line y1="-0.5" x2="6.80556" y2="-0.5" transform="matrix(-1 0 0 1 70.2361 64.2361)" stroke="white"/>
<line y1="-0.5" x2="2.04167" y2="-0.5" transform="matrix(0 -1 -1 0 63.4305 66.2777)" stroke="white"/>
<line x1="34.1666" y1="32.4305" x2="67.5138" y2="32.4305" stroke="white"/>
<line x1="34.1666" y1="45.3611" x2="67.5138" y2="45.3611" stroke="white"/>
<line x1="32.9861" y1="43.1389" x2="32.9861" y2="35.6527" stroke="white"/>
<line x1="34.4" y1="45.4041" x2="33.0388" y2="42.6819" stroke="white"/>
<line x1="33.0218" y1="36.1476" x2="34.383" y2="32.7448" stroke="white"/>
<line y1="-0.5" x2="7.48611" y2="-0.5" transform="matrix(0 -1 -1 0 68.1945 43.1389)" stroke="white"/>
<line y1="-0.5" x2="3.04354" y2="-0.5" transform="matrix(0.447214 -0.894427 -0.894427 -0.447214 66.8334 45.1805)" stroke="white"/>
<line y1="-0.5" x2="3.6649" y2="-0.5" transform="matrix(-0.371391 -0.928477 -0.928477 0.371391 68.1945 36.3333)" stroke="white"/>
<line x1="43.0139" y1="46.7222" x2="58.6667" y2="46.7222" stroke="white"/>
<line x1="43.5363" y1="47.016" x2="39.453" y2="45.6549" stroke="white"/>
<line x1="62.2276" y1="45.6549" x2="58.1442" y2="47.016" stroke="white"/>
<line x1="33.4861" y1="29.7083" x2="68.1944" y2="29.7083" stroke="white"/>
<line x1="35.0278" y1="61.5139" x2="35.0278" y2="45.1806" stroke="white"/>
<line x1="66.3334" y1="61.5139" x2="66.3334" y2="45.1806" stroke="white"/>
<line x1="29.4028" y1="61.0139" x2="72.2778" y2="61.0139" stroke="white"/>
<path d="M33.4861 20H68.1944" stroke="white"/>
<line x1="67.3123" y1="21.898" x2="69.354" y2="28.7035" stroke="white"/>
<line x1="32.3266" y1="28.7035" x2="34.3684" y2="21.898" stroke="white"/>
<line x1="34.1666" y1="21.5417" x2="67.5138" y2="21.5417" stroke="white"/>
<line x1="32.625" y1="28.1667" x2="32.625" y2="32.9305" stroke="white"/>
<line x1="69.375" y1="28.1667" x2="69.375" y2="32.9305" stroke="white"/>
<line x1="31.9445" y1="33.6111" x2="31.9445" y2="60.8333" stroke="white"/>
<line x1="70.0555" y1="33.6111" x2="70.0555" y2="60.8333" stroke="white"/>
<line x1="29.5834" y1="60.8333" x2="29.5834" y2="58.7917" stroke="white"/>
<line x1="31.904" y1="54.2247" x2="29.8624" y2="58.9886" stroke="white"/>
<path d="M71.9375 61.1736V58.7917" stroke="white"/>
<line y1="-0.5" x2="5.18296" y2="-0.5" transform="matrix(0.393919 0.919145 0.919145 -0.393919 70.2361 54.0278)" stroke="white"/>
<line x1="31.9445" y1="25.3243" x2="31.9445" y2="32.9305" stroke="white"/>
<line y1="-0.5" x2="5.70237" y2="-0.5" transform="matrix(-0.358038 0.933707 -0.901878 -0.431992 33.4861 20)" stroke="white"/>
<line y1="-0.5" x2="7.60621" y2="-0.5" transform="matrix(0 1 1 0 70.2361 25.3243)" stroke="white"/>
<line y1="-0.5" x2="5.70237" y2="-0.5" transform="matrix(0.358038 0.933707 0.901878 -0.431992 68.1945 20)" stroke="white"/>
<line x1="29.9028" y1="62.1944" x2="29.9028" y2="72.4028" stroke="white"/>
<line x1="72.0972" y1="62.1944" x2="72.0972" y2="72.4028" stroke="white"/>
<path d="M30.4236 60.8333V62.875" stroke="white"/>
<line x1="71.4166" y1="61.5139" x2="71.4166" y2="62.875" stroke="white"/>
<line x1="32.125" y1="71.9028" x2="68.875" y2="71.9028" stroke="white"/>
<line x1="32.3055" y1="73.7639" x2="32.3055" y2="72.4027" stroke="white"/>
<line x1="34.1666" y1="78.7083" x2="35.5277" y2="78.7083" stroke="white"/>
<line x1="30.0834" y1="78.7083" x2="31.4445" y2="78.7083" stroke="white"/>
<line x1="66.1528" y1="78.7083" x2="67.5139" y2="78.7083" stroke="white"/>
<line x1="68.375" y1="73.7639" x2="68.375" y2="72.4027" stroke="white"/>
<line y1="-0.5" x2="6.125" y2="-0.5" transform="matrix(0 -1 -1 0 69.5555 79.2083)" stroke="white"/>
<line y1="-0.5" x2="4.76389" y2="-0.5" transform="matrix(0 -1 -1 0 66.8334 79.2083)" stroke="white"/>
<line y1="-0.5" x2="4.76389" y2="-0.5" transform="matrix(0 -1 -1 0 65.4722 79.2083)" stroke="white"/>
<line x1="29.5834" y1="73.7639" x2="29.5834" y2="72.4027" stroke="white"/>
<line x1="30.0834" y1="73.2639" x2="32.8056" y2="73.2639" stroke="white"/>
<line x1="32.3055" y1="74.4444" x2="32.3055" y2="73.7638" stroke="white"/>
<line x1="68.875" y1="74.2639" x2="32.8056" y2="74.2639" stroke="white"/>
<line y1="-0.5" x2="1.36111" y2="-0.5" transform="matrix(0 -1 -1 0 71.5972 73.7639)" stroke="white"/>
<line y1="-0.5" x2="2.72222" y2="-0.5" transform="matrix(-1 0 0 1 71.5972 73.7639)" stroke="white"/>
<line y1="-0.5" x2="0.680556" y2="-0.5" transform="matrix(0 -1 -1 0 68.875 74.4444)" stroke="white"/>
<line x1="31.625" y1="79.2083" x2="31.625" y2="73.0833" stroke="white"/>
<line x1="29.5834" y1="79.2083" x2="29.5834" y2="73.0833" stroke="white"/>
<line x1="34.3472" y1="79.2083" x2="34.3472" y2="74.4444" stroke="white"/>
<line x1="35.7084" y1="79.2083" x2="35.7084" y2="74.4444" stroke="white"/>
<line x1="39.7916" y1="79.2083" x2="39.7916" y2="74.4444" stroke="white"/>
<line y1="-0.5" x2="6.125" y2="-0.5" transform="matrix(0 -1 -1 0 71.5972 79.2083)" stroke="white"/>
<line y1="-0.5" x2="4.76389" y2="-0.5" transform="matrix(0 -1 -1 0 61.3889 79.2083)" stroke="white"/>
<line x1="70.2361" y1="78.7083" x2="71.5972" y2="78.7083" stroke="white"/>
<line x1="27.5416" y1="38.375" x2="27.5416" y2="34.9722" stroke="white"/>
<line x1="31.4445" y1="33.1111" x2="33.4861" y2="33.1111" stroke="white"/>
<line x1="68.1945" y1="33.1111" x2="70.2361" y2="33.1111" stroke="white"/>
<line x1="26.6805" y1="33.1111" x2="31.4444" y2="33.1111" stroke="white"/>
<line x1="26.1805" y1="36.3333" x2="26.1805" y2="32.9306" stroke="white"/>
<line x1="29.5834" y1="36.3333" x2="29.5834" y2="33.6111" stroke="white"/>
<line x1="26.6805" y1="35.8333" x2="29.4028" y2="35.8333" stroke="white"/>
<line x1="26.5" y1="37.0139" x2="26.5" y2="43.8194" stroke="white"/>
<line x1="29.9028" y1="37.0139" x2="29.9028" y2="43.8194" stroke="white"/>
<line x1="26.6805" y1="43.3195" x2="29.4028" y2="43.3195" stroke="white"/>
<line x1="27" y1="37.5" x2="29.7222" y2="37.5" stroke="white"/>
<line x1="29.4028" y1="46.0417" x2="31.4445" y2="46.0417" stroke="white"/>
<line x1="28.4888" y1="43.5959" x2="29.85" y2="46.3181" stroke="white"/>
<line x1="27.5416" y1="37.6945" x2="27.5416" y2="35.6528" stroke="white"/>
<line x1="69.5555" y1="33.1111" x2="71.5972" y2="33.1111" stroke="white"/>
<line x1="73.2854" y1="35.3258" x2="71.2437" y2="33.2841" stroke="white"/>
<line x1="72.2778" y1="35.1528" x2="75.0001" y2="35.1528" stroke="white"/>
<line x1="72.2778" y1="41.9583" x2="75.0001" y2="41.9583" stroke="white"/>
<line x1="72.0972" y1="34.9722" x2="72.0972" y2="42.4583" stroke="white"/>
<line x1="75.5" y1="34.9722" x2="75.5" y2="42.4583" stroke="white"/>
<line x1="70.2361" y1="46.0417" x2="72.2777" y2="46.0417" stroke="white"/>
<line x1="74.0861" y1="42.0014" x2="72.0445" y2="46.0847" stroke="white"/>
</g>
<defs>
<filter id="filter0_d_45_245" x="-1" y="0" width="103" height="105" filterUnits="userSpaceOnUse" color-interpolation-filters="sRGB">
<feFlood flood-opacity="0" result="BackgroundImageFix"/>
<feColorMatrix in="SourceAlpha" type="matrix" values="0 0 0 0 0 0 0 0 0 0 0 0 0 0 0 0 0 0 127 0" result="hardAlpha"/>
<feOffset dy="4"/>
<feGaussianBlur stdDeviation="2"/>
<feComposite in2="hardAlpha" operator="out"/>
<feColorMatrix type="matrix" values="0 0 0 0 0 0 0 0 0 0 0 0 0 0 0 0 0 0 0.25 0"/>
<feBlend mode="normal" in2="BackgroundImageFix" result="effect1_dropShadow_45_245"/>
<feBlend mode="normal" in="SourceGraphic" in2="effect1_dropShadow_45_245" result="shape"/>
</filter>
</defs>
</svg>
