<svg width="95" height="97" viewBox="0 0 95 97" fill="none" xmlns="http://www.w3.org/2000/svg">
<line x1="94.5" y1="2" x2="94.5" y2="97" stroke="white"/>
<line x1="0.5" y1="3" x2="0.5" y2="97" stroke="white"/>
<line y1="2.5" x2="94" y2="2.5" stroke="white"/>
<line y1="96.5" x2="94" y2="96.5" stroke="white"/>
<line x1="47.5" y1="3" x2="47.5" y2="97" stroke="white"/>
<line y1="49.5" x2="94" y2="49.5" stroke="white"/>
<line x1="28.4445" y1="66.4583" x2="35.9306" y2="66.4583" stroke="white"/>
<line x1="29.9861" y1="66.2777" x2="29.9861" y2="64.2361" stroke="white"/>
<line x1="28.625" y1="66.2777" x2="28.625" y2="64.2361" stroke="white"/>
<line x1="28.4445" y1="63.7361" x2="35.25" y2="63.7361" stroke="white"/>
<line x1="34.75" y1="66.2777" x2="34.75" y2="64.2361" stroke="white"/>
<line y1="-0.5" x2="7.48611" y2="-0.5" transform="matrix(-1 0 0 1 67.2361 66.9583)" stroke="white"/>
<line y1="-0.5" x2="2.04167" y2="-0.5" transform="matrix(0 -1 -1 0 65.1945 66.2777)" stroke="white"/>
<line y1="-0.5" x2="2.04167" y2="-0.5" transform="matrix(0 -1 -1 0 66.5555 66.2777)" stroke="white"/>
<line y1="-0.5" x2="6.80556" y2="-0.5" transform="matrix(-1 0 0 1 67.2361 64.2361)" stroke="white"/>
<line y1="-0.5" x2="2.04167" y2="-0.5" transform="matrix(0 -1 -1 0 60.4305 66.2777)" stroke="white"/>
<line x1="31.1666" y1="69.8611" x2="65.1944" y2="69.8611" stroke="white"/>
<line x1="31.1666" y1="67.8194" x2="37.9722" y2="67.8194" stroke="white"/>
<line x1="30.9861" y1="67.6389" x2="30.9861" y2="70.3611" stroke="white"/>
<line x1="39.3334" y1="67.1389" x2="56.3473" y2="67.1389" stroke="white"/>
<line x1="37.8142" y1="67.8451" x2="39.8558" y2="67.1645" stroke="white"/>
<line y1="-0.5" x2="6.80556" y2="-0.5" transform="matrix(-1 0 0 1 64.5139 68.3194)" stroke="white"/>
<line y1="-0.5" x2="2.72222" y2="-0.5" transform="matrix(0 1 1 0 65.1945 67.6389)" stroke="white"/>
<line y1="-0.5" x2="2.15211" y2="-0.5" transform="matrix(-0.948683 -0.316228 -0.316228 0.948683 57.7084 68.3194)" stroke="white"/>
<line x1="31.1667" y1="32.4305" x2="64.514" y2="32.4305" stroke="white"/>
<line x1="31.1667" y1="45.3611" x2="64.514" y2="45.3611" stroke="white"/>
<line x1="29.9862" y1="43.1389" x2="29.9862" y2="35.6527" stroke="white"/>
<line x1="31.4001" y1="45.4041" x2="30.039" y2="42.6819" stroke="white"/>
<line x1="30.022" y1="36.1476" x2="31.3831" y2="32.7448" stroke="white"/>
<line y1="-0.5" x2="7.48611" y2="-0.5" transform="matrix(0 -1 -1 0 65.1946 43.1389)" stroke="white"/>
<line y1="-0.5" x2="3.04354" y2="-0.5" transform="matrix(0.447214 -0.894427 -0.894427 -0.447214 63.8335 45.1805)" stroke="white"/>
<line y1="-0.5" x2="3.6649" y2="-0.5" transform="matrix(-0.371391 -0.928477 -0.928477 0.371391 65.1946 36.3333)" stroke="white"/>
<line x1="30.4862" y1="29.7083" x2="65.1945" y2="29.7083" stroke="white"/>
<line x1="32.0278" y1="61.5139" x2="32.0278" y2="45.1806" stroke="white"/>
<line x1="63.3334" y1="61.5139" x2="63.3334" y2="45.1806" stroke="white"/>
<line x1="26.4028" y1="61.0139" x2="69.2778" y2="61.0139" stroke="white"/>
<path d="M30.4861 20H65.1944" stroke="white"/>
<line x1="64.3123" y1="21.898" x2="66.354" y2="28.7035" stroke="white"/>
<line x1="29.3266" y1="28.7035" x2="31.3684" y2="21.898" stroke="white"/>
<line x1="31.1666" y1="21.5417" x2="64.5138" y2="21.5417" stroke="white"/>
<line x1="29.625" y1="28.1667" x2="29.625" y2="32.9305" stroke="white"/>
<line x1="66.375" y1="28.1667" x2="66.375" y2="32.9305" stroke="white"/>
<line x1="28.9445" y1="33.6111" x2="28.9445" y2="60.8333" stroke="white"/>
<line x1="67.0555" y1="33.6111" x2="67.0555" y2="60.8333" stroke="white"/>
<line x1="26.5834" y1="60.8333" x2="26.5834" y2="58.7917" stroke="white"/>
<line x1="28.904" y1="54.2247" x2="26.8624" y2="58.9886" stroke="white"/>
<path d="M68.9375 61.1736V58.7917" stroke="white"/>
<line y1="-0.5" x2="5.18296" y2="-0.5" transform="matrix(0.393919 0.919145 0.919145 -0.393919 67.2361 54.0278)" stroke="white"/>
<line x1="28.9445" y1="25.3243" x2="28.9445" y2="32.9305" stroke="white"/>
<line y1="-0.5" x2="5.70237" y2="-0.5" transform="matrix(-0.358038 0.933707 -0.901878 -0.431992 30.4861 20)" stroke="white"/>
<line y1="-0.5" x2="7.60621" y2="-0.5" transform="matrix(0 1 1 0 67.2361 25.3243)" stroke="white"/>
<line y1="-0.5" x2="5.70237" y2="-0.5" transform="matrix(0.358038 0.933707 0.901878 -0.431992 65.1945 20)" stroke="white"/>
<line x1="26.9028" y1="62.1944" x2="26.9028" y2="72.4028" stroke="white"/>
<line x1="69.0972" y1="62.1944" x2="69.0972" y2="72.4028" stroke="white"/>
<path d="M27.4236 60.8333V62.875" stroke="white"/>
<line x1="68.4166" y1="61.5139" x2="68.4166" y2="62.875" stroke="white"/>
<line x1="29.125" y1="71.9028" x2="65.875" y2="71.9028" stroke="white"/>
<line x1="29.3055" y1="73.7639" x2="29.3055" y2="72.4027" stroke="white"/>
<line x1="65.375" y1="73.7639" x2="65.375" y2="72.4027" stroke="white"/>
<line x1="26.5834" y1="73.7639" x2="26.5834" y2="72.4027" stroke="white"/>
<line x1="27.0834" y1="73.2639" x2="29.8056" y2="73.2639" stroke="white"/>
<line x1="29.3055" y1="74.4444" x2="29.3055" y2="73.7638" stroke="white"/>
<line x1="65.875" y1="74.2639" x2="29.8056" y2="74.2639" stroke="white"/>
<line y1="-0.5" x2="1.36111" y2="-0.5" transform="matrix(0 -1 -1 0 68.5972 73.7639)" stroke="white"/>
<line y1="-0.5" x2="2.72222" y2="-0.5" transform="matrix(-1 0 0 1 68.5972 73.7639)" stroke="white"/>
<line y1="-0.5" x2="0.680556" y2="-0.5" transform="matrix(0 -1 -1 0 65.875 74.4444)" stroke="white"/>
<line x1="33.6503" y1="56.0833" x2="61.6135" y2="56.0833" stroke="white"/>
<line x1="33.1503" y1="58.3331" x2="33.1503" y2="56" stroke="white"/>
<line x1="61.7638" y1="58.3331" x2="61.7638" y2="56" stroke="white"/>
<line x1="40.1534" y1="59.5828" x2="55.1105" y2="59.5828" stroke="white"/>
<line y1="-0.5" x2="7.99748" y2="-0.5" transform="matrix(0.975771 0.218794 -0.2685 0.96328 33 58.3331)" stroke="white"/>
<line y1="-0.5" x2="7.99745" y2="-0.5" transform="matrix(0.975758 -0.218852 0.268569 0.96326 54.4602 60.0833)" stroke="white"/>
<line x1="28.4445" y1="33.1806" x2="30.4861" y2="33.1806" stroke="white"/>
<line x1="65.1945" y1="33.1806" x2="67.2361" y2="33.1806" stroke="white"/>
<line x1="23.6805" y1="33.1806" x2="28.4444" y2="33.1806" stroke="white"/>
<line x1="23.1805" y1="36.4028" x2="23.1805" y2="33" stroke="white"/>
<line x1="26.5834" y1="36.4028" x2="26.5834" y2="33.6806" stroke="white"/>
<line x1="23.6805" y1="35.9028" x2="26.4028" y2="35.9028" stroke="white"/>
<line x1="23.5" y1="37.0833" x2="23.5" y2="43.8889" stroke="white"/>
<line x1="26.9028" y1="37.0833" x2="26.9028" y2="43.8889" stroke="white"/>
<line x1="23.6805" y1="43.3889" x2="26.4028" y2="43.3889" stroke="white"/>
<line x1="24" y1="37.5695" x2="26.7222" y2="37.5695" stroke="white"/>
<line x1="26.4028" y1="46.1111" x2="28.4445" y2="46.1111" stroke="white"/>
<line x1="25.4888" y1="43.6653" x2="26.85" y2="46.3875" stroke="white"/>
<line x1="66.5555" y1="33.1806" x2="68.5972" y2="33.1806" stroke="white"/>
<line x1="70.2854" y1="35.3952" x2="68.2437" y2="33.3536" stroke="white"/>
<line x1="69.2778" y1="35.2222" x2="72.0001" y2="35.2222" stroke="white"/>
<line x1="69.2778" y1="42.0278" x2="72.0001" y2="42.0278" stroke="white"/>
<line x1="69.0972" y1="35.0417" x2="69.0972" y2="42.5278" stroke="white"/>
<line x1="72.5" y1="35.0417" x2="72.5" y2="42.5278" stroke="white"/>
<line x1="67.2361" y1="46.1111" x2="69.2777" y2="46.1111" stroke="white"/>
<line x1="71.0861" y1="42.0708" x2="69.0445" y2="46.1542" stroke="white"/>
</svg>
